<svg xmlns="http://www.w3.org/2000/svg" viewBox="0 0 100 100" width="100" height="100" preserveAspectRatio="xMidYMid meet" style="width: 100%; height: 100%; transform: translate3d(0px, 0px, 0px);"><defs><clipPath id="__lottie_element_2"><rect width="100" height="100" x="0" y="0"></rect></clipPath></defs><g clip-path="url(#__lottie_element_2)"><g transform="matrix(1,0,0,1,40.96900177001953,18.999000549316406)" opacity="1" style="display: block;"><g opacity="0" transform="matrix(1,0,0,1,22.20400047302246,36.125)"><path stroke-linecap="butt" stroke-linejoin="miter" fill-opacity="0" stroke-miterlimit="4" stroke="rgb(36,74,116)" stroke-opacity="1" stroke-width="1" d=" M-21.95400047302246,-10.25 C-21.95400047302246,-10.25 -21.95400047302246,10.25 -21.95400047302246,10.25 C-21.95400047302246,10.25 21.95400047302246,35.875 21.95400047302246,35.875 C21.95400047302246,35.875 21.95400047302246,15.375 21.95400047302246,15.375 C21.95400047302246,15.375 -4.390999794006348,0 -4.390999794006348,0 C-4.390999794006348,0 21.95400047302246,-15.375 21.95400047302246,-15.375 C21.95400047302246,-15.375 21.95400047302246,-35.875 21.95400047302246,-35.875 C21.95400047302246,-35.875 -21.95400047302246,-10.25 -21.95400047302246,-10.25z"></path></g><g opacity="1" transform="matrix(1,0,0,1,22.20400047302246,36.125)"><path fill="rgb(35,73,116)" fill-opacity="1" d=" M-21.95400047302246,-10.25 C-21.95400047302246,-10.25 -21.95400047302246,10.25 -21.95400047302246,10.25 C-21.95400047302246,10.25 21.95400047302246,35.875 21.95400047302246,35.875 C21.95400047302246,35.875 21.95400047302246,15.375 21.95400047302246,15.375 C21.95400047302246,15.375 -4.390999794006348,0 -4.390999794006348,0 C-4.390999794006348,0 21.95400047302246,-15.375 21.95400047302246,-15.375 C21.95400047302246,-15.375 21.95400047302246,-35.875 21.95400047302246,-35.875 C21.95400047302246,-35.875 -21.95400047302246,-10.25 -21.95400047302246,-10.25z"></path></g></g><g transform="matrix(1,0,0,1,14.62299919128418,8.749000549316406)" opacity="1" style="display: block;"><g opacity="0" transform="matrix(1,0,0,1,22.20400047302246,36.125)"><path stroke-linecap="butt" stroke-linejoin="miter" fill-opacity="0" stroke-miterlimit="4" stroke="rgb(80,195,200)" stroke-opacity="1" stroke-width="1" d=" M-21.95400047302246,-35.875 C-21.95400047302246,-35.875 -21.95400047302246,-15.375 -21.95400047302246,-15.375 C-21.95400047302246,-15.375 4.390999794006348,0 4.390999794006348,0 C4.390999794006348,0 -21.95400047302246,15.375 -21.95400047302246,15.375 C-21.95400047302246,15.375 -21.95400047302246,35.875 -21.95400047302246,35.875 C-21.95400047302246,35.875 21.95400047302246,10.25 21.95400047302246,10.25 C21.95400047302246,10.25 21.95400047302246,-10.25 21.95400047302246,-10.25 C21.95400047302246,-10.25 -21.95400047302246,-35.875 -21.95400047302246,-35.875z"></path></g><g opacity="1" transform="matrix(1,0,0,1,22.20400047302246,36.125)"><path fill="rgb(80,195,199)" fill-opacity="1" d=" M-21.95400047302246,-35.875 C-21.95400047302246,-35.875 -21.95400047302246,-15.375 -21.95400047302246,-15.375 C-21.95400047302246,-15.375 4.390999794006348,0 4.390999794006348,0 C4.390999794006348,0 -21.95400047302246,15.375 -21.95400047302246,15.375 C-21.95400047302246,15.375 -21.95400047302246,35.875 -21.95400047302246,35.875 C-21.95400047302246,35.875 21.95400047302246,10.25 21.95400047302246,10.25 C21.95400047302246,10.25 21.95400047302246,-10.25 21.95400047302246,-10.25 C21.95400047302246,-10.25 -21.95400047302246,-35.875 -21.95400047302246,-35.875z"></path></g></g><g style="display: block;" transform="matrix(1,0,0,1,40.96800231933594,34.374000549316406)" opacity="1"><g opacity="1" transform="matrix(1,0,0,1,9.031999588012695,15.625)"><path fill="rgb(3,144,164)" fill-opacity="1" d=" M8.781999588012695,-15.37399959564209 C8.781999588012695,-15.37399959564209 -8.781999588012695,-5.124000072479248 -8.781999588012695,-5.124000072479248 C-8.781999588012695,-5.124000072479248 -8.781999588012695,15.37399959564209 -8.781999588012695,15.37399959564209 C-8.781999588012695,15.37399959564209 8.781999588012695,5.124000072479248 8.781999588012695,5.124000072479248 C8.781999588012695,5.124000072479248 8.781999588012695,-15.37399959564209 8.781999588012695,-15.37399959564209z"></path></g></g></g></svg>
